<svg xmlns="http://www.w3.org/2000/svg" xmlns:xlink="http://www.w3.org/1999/xlink" xmlns:lucid="lucid" width="1102.5" height="1458.15"><g transform="translate(-3028.3713230303374 -714.1997235259548)" lucid:page-tab-id="pVBAjiHRCrSI"><path d="M3000 500h1500v2000H3000z" fill="#fff"/><path d="M3029.87 1621.2a6 6 0 0 1 6-6h708a6 6 0 0 1 6 6v195a6 6 0 0 1-6 6h-708a6 6 0 0 1-6-6z" stroke="#282c33" stroke-width="2" fill="#ffd6f5"/><path d="M3029.87 1657.87h720m-720 95.33h720" stroke="#282c33" stroke-width="2" fill="none"/><use xlink:href="#a" transform="matrix(1,0,0,1,3037.8713230303374,1623.1997235259548) translate(223.23456790123458 17.944444444444443)"/><use xlink:href="#b" transform="matrix(1,0,0,1,3037.8713230303374,1623.1997235259548) translate(421.6296296296296 17.944444444444443)"/><use xlink:href="#c" transform="matrix(1,0,0,1,3041.8713230303374,1665.8663901926216) translate(0 31.111111111111114)"/><use xlink:href="#d" transform="matrix(1,0,0,1,3041.8713230303374,1665.8663901926216) translate(0 57.77777777777778)"/><use xlink:href="#e" transform="matrix(1,0,0,1,3041.8713230303374,1665.8663901926216) translate(215.67901234567896 57.77777777777778)"/><use xlink:href="#f" transform="matrix(1,0,0,1,3041.8713230303374,1761.1997235259548) translate(0 30.944444444444443)"/><use xlink:href="#g" transform="matrix(1,0,0,1,3041.8713230303374,1761.1997235259548) translate(292.716049382716 30.944444444444443)"/><path d="M3029.87 1921.8a6 6 0 0 1 6-6h748a6 6 0 0 1 6 6v234.56a6 6 0 0 1-6 6h-748a6 6 0 0 1-6-6z" fill="#14171a"/><path d="M3029.87 1921.8a6 6 0 0 1 6-6h748a6 6 0 0 1 6 6v234.56a6 6 0 0 1-6 6h-748a6 6 0 0 1-6-6z" stroke="#000" stroke-opacity="0" stroke-width="3" fill="none"/><use xlink:href="#h" transform="matrix(1,0,0,1,3069.871323030338,1925.7865290815105) translate(0 18.50043402777778)"/><use xlink:href="#i" transform="matrix(1,0,0,1,3069.871323030338,1925.7865290815105) translate(53.34333333333333 43.674045138888886)"/><use xlink:href="#j" transform="matrix(1,0,0,1,3069.871323030338,1925.7865290815105) translate(53.34333333333333 68.84765625)"/><use xlink:href="#k" transform="matrix(1,0,0,1,3069.871323030338,1925.7865290815105) translate(106.67666666666666 68.84765625)"/><use xlink:href="#l" transform="matrix(1,0,0,1,3069.871323030338,1925.7865290815105) translate(53.34333333333333 94.02126736111111)"/><use xlink:href="#m" transform="matrix(1,0,0,1,3069.871323030338,1925.7865290815105) translate(53.34333333333333 119.19487847222223)"/><use xlink:href="#n" transform="matrix(1,0,0,1,3069.871323030338,1925.7865290815105) translate(146.6918576388889 119.19487847222223)"/><use xlink:href="#j" transform="matrix(1,0,0,1,3069.871323030338,1925.7865290815105) translate(53.34333333333333 144.36848958333334)"/><use xlink:href="#o" transform="matrix(1,0,0,1,3069.871323030338,1925.7865290815105) translate(106.67666666666666 144.36848958333334)"/><use xlink:href="#p" transform="matrix(1,0,0,1,3069.871323030338,1925.7865290815105) translate(160.01868055555553 144.36848958333334)"/><use xlink:href="#q" transform="matrix(1,0,0,1,3069.871323030338,1925.7865290815105) translate(53.34333333333333 169.54210069444443)"/><use xlink:href="#m" transform="matrix(1,0,0,1,3069.871323030338,1925.7865290815105) translate(53.34333333333333 194.71571180555554)"/><use xlink:href="#r" transform="matrix(1,0,0,1,3069.871323030338,1925.7865290815105) translate(146.6918576388889 194.71571180555554)"/><use xlink:href="#s" transform="matrix(1,0,0,1,3069.871323030338,1925.7865290815105) translate(0 219.88932291666666)"/><use xlink:href="#t" transform="matrix(1,0,0,1,3043.204656363671,1925.7865290815105) translate(0.6644965277777786 18.50043402777778)"/><use xlink:href="#u" transform="matrix(1,0,0,1,3043.204656363671,1925.7865290815105) translate(0.6644965277777786 43.674045138888886)"/><use xlink:href="#v" transform="matrix(1,0,0,1,3043.204656363671,1925.7865290815105) translate(0.6644965277777786 68.84765625)"/><use xlink:href="#w" transform="matrix(1,0,0,1,3043.204656363671,1925.7865290815105) translate(0.6644965277777786 94.02126736111111)"/><use xlink:href="#x" transform="matrix(1,0,0,1,3043.204656363671,1925.7865290815105) translate(0.6644965277777786 119.19487847222223)"/><use xlink:href="#y" transform="matrix(1,0,0,1,3043.204656363671,1925.7865290815105) translate(0.6644965277777786 144.36848958333334)"/><use xlink:href="#z" transform="matrix(1,0,0,1,3043.204656363671,1925.7865290815105) translate(0.6644965277777786 169.54210069444443)"/><use xlink:href="#A" transform="matrix(1,0,0,1,3043.204656363671,1925.7865290815105) translate(0.6644965277777786 194.71571180555554)"/><use xlink:href="#B" transform="matrix(1,0,0,1,3043.204656363671,1925.7865290815105) translate(0.6644965277777786 219.88932291666666)"/><use xlink:href="#C" transform="matrix(1,0,0,1,3043.204656363671,1925.7865290815105) translate(0 245.06293402777777)"/><g transform="matrix(1,0,0,1,3069.871323030338,1925.7865290815105)"><a xlink:href="http://Either.makeLeft(" target="_blank"><path class="lucid-link lucid-hotspot lucid-overlay-hotspot" fill-opacity="0" d="M146.7 100.7h80v25.16h-80z"/></a><a xlink:href="http://Either.makeLeft(" target="_blank"><path class="lucid-link lucid-hotspot lucid-overlay-hotspot" fill-opacity="0" d="M226.7 100.7h13.34v25.16H226.7z"/></a><a xlink:href="http://Either.makeLeft(" target="_blank"><path class="lucid-link lucid-hotspot lucid-overlay-hotspot" fill-opacity="0" d="M240.04 100.7h106.68v25.16H240.04z"/></a><a xlink:href="http://Either.makeLeft(" target="_blank"><path class="lucid-link lucid-hotspot lucid-overlay-hotspot" fill-opacity="0" d="M346.72 100.7h13.34v25.16h-13.34z"/></a></g><path d="M3169.87 1141.2a6 6 0 0 1 6-6h348a6 6 0 0 1 6 6v218a6 6 0 0 1-6 6h-348a6 6 0 0 1-6-6z" stroke="#282c33" stroke-width="2" fill="#ffd6f5"/><path d="M3169.87 1194.4h360" stroke="#282c33" stroke-width="2" fill="none"/><use xlink:href="#D" transform="matrix(1,0,0,1,3177.8713230303374,1143.1997235259548) translate(113.57499999999999 14.799999999999999)"/><use xlink:href="#E" transform="matrix(1,0,0,1,3177.8713230303374,1143.1997235259548) translate(116.14999999999999 36.4)"/><use xlink:href="#F" transform="matrix(1,0,0,1,3181.8713230303374,1202.3997235259549) translate(0 68.61111111111111)"/><use xlink:href="#G" transform="matrix(1,0,0,1,3181.8713230303374,1202.3997235259549) translate(0 95.27777777777777)"/><path d="M3769.87 1154.2a6 6 0 0 1 6-6h348a6 6 0 0 1 6 6v168a6 6 0 0 1-6 6h-348a6 6 0 0 1-6-6z" stroke="#282c33" stroke-width="2" fill="#ffd6f5"/><path d="M3769.87 1207.4h360" stroke="#282c33" stroke-width="2" fill="none"/><g><use xlink:href="#H" transform="matrix(1,0,0,1,3777.8713230303374,1156.1997235259548) translate(127.05 14.799999999999999)"/><use xlink:href="#I" transform="matrix(1,0,0,1,3777.8713230303374,1156.1997235259548) translate(152.55 36.4)"/></g><g><use xlink:href="#J" transform="matrix(1,0,0,1,3781.8713230303374,1215.3997235259549) translate(0 30.27777777777778)"/><use xlink:href="#K" transform="matrix(1,0,0,1,3781.8713230303374,1215.3997235259549) translate(0 56.94444444444445)"/><use xlink:href="#L" transform="matrix(1,0,0,1,3781.8713230303374,1215.3997235259549) translate(0 83.61111111111111)"/></g><path d="M3950.35 1465.72l-.08 1-.24.98-.4.94-.52.87-.65.78-.77.66-.87.53-.93.4-1 .23-.98.08h-344.5l-.87.06-.85.2-.8.34-.74.45-.65.56-.58.65-.45.74-.33.8-.2.84-.07.88v106.1h-.95v-106.14l.07-1 .23-.98.4-.94.52-.87.66-.78.78-.66.87-.53.94-.4.98-.23 1-.08h344.47l.9-.07.83-.2.8-.33.74-.45.66-.57.56-.65.45-.74.32-.8.2-.84.08-.88v-65.35h.95zm0-86.73h-.95v-49.3h.95z" stroke="#3a414a" stroke-width=".05" fill="#3a414a"/><path d="M3608.24 1598.64l-14.85 14.85-14.86-14.86 14.85-14.85z" fill="#fff"/><path d="M3608.9 1598.64l-15.5 15.52-15.53-15.52 15.52-15.52zm-29.7 0l14.2 14.18 14.17-14.18-14.18-14.17z" stroke="#3a414a" stroke-width=".05" fill="#3a414a"/><path d="M3950.35 1329.7h-.95v-.5h.95z" fill="#3a414a"/><path stroke="#3a414a" stroke-width=".05" fill="#3a414a"/><g><use xlink:href="#M" transform="matrix(1,0,0,1,3944.9330514253993,1378.9929700782734) translate(0 14.222222222222223)"/></g><path d="M3450.16 1465.68l.07.88.2.85.34.8.45.75.56.65.66.57.74.45.8.33.84.2.88.07h131.7l1 .08 1 .24.93.4.87.52.77.66.66.77.53.86.4.94.23 1 .07.98v106.14h-.95v-106.1l-.07-.88-.2-.85-.34-.8-.44-.75-.56-.66-.66-.57-.74-.45-.8-.33-.84-.2-.9-.08h-131.7l-1-.07-.97-.24-.95-.4-.87-.52-.77-.66-.65-.77-.53-.86-.4-.94-.23-1-.1-.98v-40.64h.96zm0-61.93h-.95v-37.05h.96z" stroke="#3a414a" stroke-width=".05" fill="#3a414a"/><path d="M3608.24 1598.64l-14.85 14.85-14.86-14.86 14.85-14.85z" fill="#fff"/><path d="M3608.9 1598.64l-15.5 15.52-15.53-15.52 15.52-15.52zm-29.7 0l14.2 14.18 14.17-14.18-14.18-14.17z" stroke="#3a414a" stroke-width=".05" fill="#3a414a"/><path d="M3450.16 1366.7h-.95v-.5h.96z" fill="#3a414a"/><path stroke="#3a414a" stroke-width=".05" fill="#3a414a"/><g><use xlink:href="#M" transform="matrix(1,0,0,1,3444.748342480712,1403.7500458047562) translate(0 14.222222222222223)"/></g><path d="M3149.87 721.2a6 6 0 0 1 6-6h408a6 6 0 0 1 6 6v235a6 6 0 0 1-6 6h-408a6 6 0 0 1-6-6z" stroke="#282c33" stroke-width="2" fill="#cfe4ff"/><path d="M3149.87 757.87h420m-420 88.66h420" stroke="#282c33" stroke-width="2" fill="none"/><g><use xlink:href="#N" transform="matrix(1,0,0,1,3157.8713230303374,723.1997235259548) translate(123.14197530864197 17.944444444444443)"/></g><g><use xlink:href="#O" transform="matrix(1,0,0,1,3161.8713230303374,765.8663901926215) translate(0 40.94444444444444)"/></g><g><use xlink:href="#F" transform="matrix(1,0,0,1,3161.8713230303374,854.5330568592881) translate(0 41.111111111111114)"/><use xlink:href="#G" transform="matrix(1,0,0,1,3161.8713230303374,854.5330568592881) translate(0 67.77777777777777)"/></g><path d="M3350.35 1117.82h-.95v-58.45h.95zm0-79.8h-.95V963.7h.95z" stroke="#3a414a" stroke-width=".05" fill="#3a414a"/><path d="M3349.87 1132.58l-4.63-14.26h9.27z" fill="#fff"/><path d="M3349.87 1134.12l-5.3-16.28h10.6zm-3.98-15.33l3.97 12.25 3.98-12.26z" stroke="#3a414a" stroke-width=".05" fill="#3a414a"/><path d="M3350.35 963.7h-.95v-.5h.95z" fill="#3a414a"/><path stroke="#3a414a" stroke-width=".05" fill="#3a414a"/><g><use xlink:href="#P" transform="matrix(1,0,0,1,3300.562681055029,1038.0330580847783) translate(0 14.222222222222223)"/></g><defs><path fill="#3a414a" d="M169-182c-1-43-94-46-97-3 18 66 151 10 154 114 3 95-165 93-204 36-6-8-10-19-12-30l50-8c3 46 112 56 116 5-17-69-150-10-154-114-4-87 153-88 188-35 5 8 8 18 10 28" id="Q"/><path fill="#3a414a" d="M185-48c-13 30-37 53-82 52C43 2 14-33 14-96s30-98 90-98c62 0 83 45 84 108H66c0 31 8 55 39 56 18 0 30-7 34-22zm-45-69c5-46-57-63-70-21-2 6-4 13-4 21h74" id="R"/><path fill="#3a414a" d="M190-63c-7 42-38 67-86 67-59 0-84-38-90-98-12-110 154-137 174-36l-49 2c-2-19-15-32-35-32-30 0-35 28-38 64-6 74 65 87 74 30" id="S"/><path fill="#3a414a" d="M85 4C-2 5 27-109 22-190h50c7 57-23 150 33 157 60-5 35-97 40-157h50l1 190h-47c-2-12 1-28-3-38-12 25-28 42-61 42" id="T"/><path fill="#3a414a" d="M135-150c-39-12-60 13-60 57V0H25l-1-190h47c2 13-1 29 3 40 6-28 27-53 61-41v41" id="U"/><path fill="#3a414a" d="M25-224v-37h50v37H25zM25 0v-190h50V0H25" id="V"/><path fill="#3a414a" d="M115-3C79 11 28 4 28-45v-112H4v-33h27l15-45h31v45h36v33H77v99c-1 23 16 31 38 25v30" id="W"/><path fill="#3a414a" d="M123 10C108 53 80 86 19 72V37c35 8 53-11 59-39L3-190h52l48 148c12-52 28-100 44-148h51" id="X"/><path fill="#3a414a" d="M24-248c120-7 223 5 221 122C244-46 201 0 124 0H24v-248zM76-40c74 7 117-18 117-86 0-67-45-88-117-82v168" id="Y"/><path fill="#3a414a" d="M110-194c64 0 96 36 96 99 0 64-35 99-97 99-61 0-95-36-95-99 0-62 34-99 96-99zm-1 164c35 0 45-28 45-65 0-40-10-65-43-65-34 0-45 26-45 65 0 36 10 65 43 65" id="Z"/><path fill="#3a414a" d="M133-34C117-15 103 5 69 4 32 3 11-16 11-54c-1-60 55-63 116-61 1-26-3-47-28-47-18 1-26 9-28 27l-52-2c7-38 36-58 82-57s74 22 75 68l1 82c-1 14 12 18 25 15v27c-30 8-71 5-69-32zm-48 3c29 0 43-24 42-57-32 0-66-3-65 30 0 17 8 27 23 27" id="aa"/><g id="a"><use transform="matrix(0.06172839506172839,0,0,0.06172839506172839,0,0)" xlink:href="#Q"/><use transform="matrix(0.06172839506172839,0,0,0.06172839506172839,14.814814814814813,0)" xlink:href="#R"/><use transform="matrix(0.06172839506172839,0,0,0.06172839506172839,27.160493827160494,0)" xlink:href="#S"/><use transform="matrix(0.06172839506172839,0,0,0.06172839506172839,39.50617283950617,0)" xlink:href="#T"/><use transform="matrix(0.06172839506172839,0,0,0.06172839506172839,53.02469135802469,0)" xlink:href="#U"/><use transform="matrix(0.06172839506172839,0,0,0.06172839506172839,61.666666666666664,0)" xlink:href="#V"/><use transform="matrix(0.06172839506172839,0,0,0.06172839506172839,67.8395061728395,0)" xlink:href="#W"/><use transform="matrix(0.06172839506172839,0,0,0.06172839506172839,75.18518518518519,0)" xlink:href="#X"/><use transform="matrix(0.06172839506172839,0,0,0.06172839506172839,87.53086419753087,0)" xlink:href="#Y"/><use transform="matrix(0.06172839506172839,0,0,0.06172839506172839,103.51851851851853,0)" xlink:href="#R"/><use transform="matrix(0.06172839506172839,0,0,0.06172839506172839,115.86419753086422,0)" xlink:href="#S"/><use transform="matrix(0.06172839506172839,0,0,0.06172839506172839,128.2098765432099,0)" xlink:href="#Z"/><use transform="matrix(0.06172839506172839,0,0,0.06172839506172839,141.7283950617284,0)" xlink:href="#U"/><use transform="matrix(0.06172839506172839,0,0,0.06172839506172839,150.37037037037038,0)" xlink:href="#aa"/><use transform="matrix(0.06172839506172839,0,0,0.06172839506172839,162.71604938271605,0)" xlink:href="#W"/><use transform="matrix(0.06172839506172839,0,0,0.06172839506172839,170.06172839506172,0)" xlink:href="#Z"/><use transform="matrix(0.06172839506172839,0,0,0.06172839506172839,183.58024691358023,0)" xlink:href="#U"/></g><path fill="#3a414a" d="M15-91v-56l181-69v40L49-119l147 57v40" id="ab"/><path fill="#3a414a" d="M136-208V0H84v-208H4v-40h212v40h-80" id="ac"/><path fill="#3a414a" d="M76-54c-1 42 2 86-19 110H24C36 42 46 24 48 0H25v-54h51" id="ad"/><path fill="#3a414a" d="M240-174c0 40-23 61-54 70L253 0h-59l-57-94H76V0H24v-248c93 4 217-23 216 74zM76-134c48-2 112 12 112-38 0-48-66-32-112-35v73" id="ae"/><path fill="#3a414a" d="M15-22v-40l146-57-146-57v-40l181 69v56" id="af"/><g id="b"><use transform="matrix(0.06172839506172839,0,0,0.06172839506172839,0,0)" xlink:href="#ab"/><use transform="matrix(0.06172839506172839,0,0,0.06172839506172839,12.962962962962962,0)" xlink:href="#ac"/><use transform="matrix(0.06172839506172839,0,0,0.06172839506172839,24.01234567901234,0)" xlink:href="#ad"/><use transform="matrix(0.06172839506172839,0,0,0.06172839506172839,30.18518518518518,0)" xlink:href="#ae"/><use transform="matrix(0.06172839506172839,0,0,0.06172839506172839,46.172839506172835,0)" xlink:href="#af"/></g><path fill="#3a414a" d="M84 4C-5 8 30-112 23-190h32v120c0 31 7 50 39 49 72-2 45-101 50-169h31l1 190h-30c-1-10 1-25-2-33-11 22-28 36-60 37" id="ag"/><path fill="#3a414a" d="M135-143c-3-34-86-38-87 0 15 53 115 12 119 90S17 21 10-45l28-5c4 36 97 45 98 0-10-56-113-15-118-90-4-57 82-63 122-42 12 7 21 19 24 35" id="ah"/><path fill="#3a414a" d="M100-194c63 0 86 42 84 106H49c0 40 14 67 53 68 26 1 43-12 49-29l28 8c-11 28-37 45-77 45C44 4 14-33 15-96c1-61 26-98 85-98zm52 81c6-60-76-77-97-28-3 7-6 17-6 28h103" id="ai"/><path fill="#3a414a" d="M114-163C36-179 61-72 57 0H25l-1-190h30c1 12-1 29 2 39 6-27 23-49 58-41v29" id="aj"/><path fill="#3a414a" d="M212-179c-10-28-35-45-73-45-59 0-87 40-87 99 0 60 29 101 89 101 43 0 62-24 78-52l27 14C228-24 195 4 139 4 59 4 22-46 18-125c-6-104 99-153 187-111 19 9 31 26 39 46" id="ak"/><path fill="#3a414a" d="M100-194c62-1 85 37 85 99 1 63-27 99-86 99S16-35 15-95c0-66 28-99 85-99zM99-20c44 1 53-31 53-75 0-43-8-75-51-75s-53 32-53 75 10 74 51 75" id="al"/><path fill="#3a414a" d="M117-194c89-4 53 116 60 194h-32v-121c0-31-8-49-39-48C34-167 62-67 57 0H25l-1-190h30c1 10-1 24 2 32 11-22 29-35 61-36" id="am"/><path fill="#3a414a" d="M59-47c-2 24 18 29 38 22v24C64 9 27 4 27-40v-127H5v-23h24l9-43h21v43h35v23H59v120" id="an"/><path fill="#3a414a" d="M141 0L90-78 38 0H4l68-98-65-92h35l48 74 47-74h35l-64 92 68 98h-35" id="ao"/><path fill="#3a414a" d="M33-154v-36h34v36H33zM33 0v-36h34V0H33" id="ap"/><path fill="#3a414a" d="M33 0v-248h34V0H33" id="aq"/><path fill="#3a414a" d="M232-93c-1 65-40 97-104 97C67 4 28-28 28-90v-158h33c8 89-33 224 67 224 102 0 64-133 71-224h33v155" id="ar"/><g id="c"><use transform="matrix(0.06172839506172839,0,0,0.06172839506172839,0,0)" xlink:href="#ag"/><use transform="matrix(0.06172839506172839,0,0,0.06172839506172839,12.345679012345679,0)" xlink:href="#ah"/><use transform="matrix(0.06172839506172839,0,0,0.06172839506172839,23.45679012345679,0)" xlink:href="#ai"/><use transform="matrix(0.06172839506172839,0,0,0.06172839506172839,35.80246913580247,0)" xlink:href="#aj"/><use transform="matrix(0.06172839506172839,0,0,0.06172839506172839,43.148148148148145,0)" xlink:href="#ak"/><use transform="matrix(0.06172839506172839,0,0,0.06172839506172839,59.1358024691358,0)" xlink:href="#al"/><use transform="matrix(0.06172839506172839,0,0,0.06172839506172839,71.48148148148148,0)" xlink:href="#am"/><use transform="matrix(0.06172839506172839,0,0,0.06172839506172839,83.82716049382717,0)" xlink:href="#an"/><use transform="matrix(0.06172839506172839,0,0,0.06172839506172839,90,0)" xlink:href="#ai"/><use transform="matrix(0.06172839506172839,0,0,0.06172839506172839,102.34567901234568,0)" xlink:href="#ao"/><use transform="matrix(0.06172839506172839,0,0,0.06172839506172839,113.4567901234568,0)" xlink:href="#an"/><use transform="matrix(0.06172839506172839,0,0,0.06172839506172839,119.62962962962963,0)" xlink:href="#ap"/><use transform="matrix(0.06172839506172839,0,0,0.06172839506172839,125.80246913580247,0)" xlink:href="#aq"/><use transform="matrix(0.06172839506172839,0,0,0.06172839506172839,131.97530864197532,0)" xlink:href="#ar"/><use transform="matrix(0.06172839506172839,0,0,0.06172839506172839,147.96296296296296,0)" xlink:href="#ah"/><use transform="matrix(0.06172839506172839,0,0,0.06172839506172839,159.07407407407408,0)" xlink:href="#ai"/><use transform="matrix(0.06172839506172839,0,0,0.06172839506172839,171.41975308641975,0)" xlink:href="#aj"/><use transform="matrix(0.06172839506172839,0,0,0.06172839506172839,178.76543209876542,0)" xlink:href="#ak"/><use transform="matrix(0.06172839506172839,0,0,0.06172839506172839,194.75308641975306,0)" xlink:href="#al"/><use transform="matrix(0.06172839506172839,0,0,0.06172839506172839,207.09876543209873,0)" xlink:href="#am"/><use transform="matrix(0.06172839506172839,0,0,0.06172839506172839,219.4444444444444,0)" xlink:href="#an"/><use transform="matrix(0.06172839506172839,0,0,0.06172839506172839,225.61728395061724,0)" xlink:href="#ai"/><use transform="matrix(0.06172839506172839,0,0,0.06172839506172839,237.9629629629629,0)" xlink:href="#ao"/><use transform="matrix(0.06172839506172839,0,0,0.06172839506172839,249.07407407407402,0)" xlink:href="#an"/></g><path fill="#3a414a" d="M141-36C126-15 110 5 73 4 37 3 15-17 15-53c-1-64 63-63 125-63 3-35-9-54-41-54-24 1-41 7-42 31l-33-3c5-37 33-52 76-52 45 0 72 20 72 64v82c-1 20 7 32 28 27v20c-31 9-61-2-59-35zM48-53c0 20 12 33 32 33 41-3 63-29 60-74-43 2-92-5-92 41" id="as"/><path fill="#3a414a" d="M108 0H70L1-190h34L89-25l56-165h34" id="at"/><path fill="#3a414a" d="M24 0v-261h32V0H24" id="au"/><path fill="#3a414a" d="M115-194c53 0 69 39 70 98 0 66-23 100-70 100C84 3 66-7 56-30L54 0H23l1-261h32v101c10-23 28-34 59-34zm-8 174c40 0 45-34 45-75 0-40-5-75-45-74-42 0-51 32-51 76 0 43 10 73 51 73" id="av"/><path fill="#3a414a" d="M233-177c-1 41-23 64-60 70L243 0h-38l-65-103H63V0H30v-248c88 3 205-21 203 71zM63-129c60-2 137 13 137-47 0-61-80-42-137-45v92" id="aw"/><path fill="#3a414a" d="M26 75v-336h71v23H56V52h41v23H26" id="ax"/><g id="d"><use transform="matrix(0.06172839506172839,0,0,0.06172839506172839,0,0)" xlink:href="#as"/><use transform="matrix(0.06172839506172839,0,0,0.06172839506172839,12.345679012345679,0)" xlink:href="#at"/><use transform="matrix(0.06172839506172839,0,0,0.06172839506172839,23.45679012345679,0)" xlink:href="#as"/><use transform="matrix(0.06172839506172839,0,0,0.06172839506172839,35.80246913580247,0)" xlink:href="#au"/><use transform="matrix(0.06172839506172839,0,0,0.06172839506172839,40.67901234567901,0)" xlink:href="#ai"/><use transform="matrix(0.06172839506172839,0,0,0.06172839506172839,53.02469135802469,0)" xlink:href="#as"/><use transform="matrix(0.06172839506172839,0,0,0.06172839506172839,65.37037037037037,0)" xlink:href="#av"/><use transform="matrix(0.06172839506172839,0,0,0.06172839506172839,77.71604938271605,0)" xlink:href="#au"/><use transform="matrix(0.06172839506172839,0,0,0.06172839506172839,82.5925925925926,0)" xlink:href="#ai"/><use transform="matrix(0.06172839506172839,0,0,0.06172839506172839,94.93827160493828,0)" xlink:href="#aw"/><use transform="matrix(0.06172839506172839,0,0,0.06172839506172839,110.92592592592594,0)" xlink:href="#al"/><use transform="matrix(0.06172839506172839,0,0,0.06172839506172839,123.27160493827162,0)" xlink:href="#au"/><use transform="matrix(0.06172839506172839,0,0,0.06172839506172839,128.14814814814815,0)" xlink:href="#ai"/><use transform="matrix(0.06172839506172839,0,0,0.06172839506172839,140.49382716049382,0)" xlink:href="#ah"/><use transform="matrix(0.06172839506172839,0,0,0.06172839506172839,151.60493827160494,0)" xlink:href="#ap"/><use transform="matrix(0.06172839506172839,0,0,0.06172839506172839,157.77777777777777,0)" xlink:href="#aw"/><use transform="matrix(0.06172839506172839,0,0,0.06172839506172839,173.76543209876542,0)" xlink:href="#al"/><use transform="matrix(0.06172839506172839,0,0,0.06172839506172839,186.1111111111111,0)" xlink:href="#au"/><use transform="matrix(0.06172839506172839,0,0,0.06172839506172839,190.98765432098762,0)" xlink:href="#ai"/><use transform="matrix(0.06172839506172839,0,0,0.06172839506172839,203.3333333333333,0)" xlink:href="#ax"/></g><path fill="#3a414a" d="M3 75V52h41v-290H3v-23h71V75H3" id="ay"/><use transform="matrix(0.06172839506172839,0,0,0.06172839506172839,0,0)" xlink:href="#ay" id="e"/><path fill="#3a414a" d="M96-169c-40 0-48 33-48 73s9 75 48 75c24 0 41-14 43-38l32 2c-6 37-31 61-74 61-59 0-76-41-82-99-10-93 101-131 147-64 4 7 5 14 7 22l-32 3c-4-21-16-35-41-35" id="az"/><path fill="#3a414a" d="M87 75C49 33 22-17 22-94c0-76 28-126 65-167h31c-38 41-64 92-64 168S80 34 118 75H87" id="aA"/><path fill="#3a414a" d="M85-194c31 0 48 13 60 33l-1-100h32l1 261h-30c-2-10 0-23-3-31C134-8 116 4 85 4 32 4 16-35 15-94c0-66 23-100 70-100zm9 24c-40 0-46 34-46 75 0 40 6 74 45 74 42 0 51-32 51-76 0-42-9-74-50-73" id="aB"/><path fill="#3a414a" d="M127-220V0H93v-220H8v-28h204v28h-85" id="aC"/><path fill="#3a414a" d="M33-261c38 41 65 92 65 168S71 34 33 75H2C39 34 66-17 66-93S39-220 2-261h31" id="aD"/><path fill="#3a414a" d="M30 0v-248h187v28H63v79h144v27H63v87h162V0H30" id="aE"/><path fill="#3a414a" d="M24-231v-30h32v30H24zM24 0v-190h32V0H24" id="aF"/><path fill="#3a414a" d="M106-169C34-169 62-67 57 0H25v-261h32l-1 103c12-21 28-36 61-36 89 0 53 116 60 194h-32v-121c2-32-8-49-39-48" id="aG"/><path fill="#3a414a" d="M18-100v-36l175-74v27L42-118l151 64v27" id="aH"/><path fill="#3a414a" d="M68-38c1 34 0 65-14 84H32c9-13 17-26 17-46H33v-38h35" id="aI"/><g id="f"><use transform="matrix(0.06172839506172839,0,0,0.06172839506172839,0,0)" xlink:href="#ai"/><use transform="matrix(0.06172839506172839,0,0,0.06172839506172839,12.345679012345679,0)" xlink:href="#ao"/><use transform="matrix(0.06172839506172839,0,0,0.06172839506172839,23.45679012345679,0)" xlink:href="#ai"/><use transform="matrix(0.06172839506172839,0,0,0.06172839506172839,35.80246913580247,0)" xlink:href="#az"/><use transform="matrix(0.06172839506172839,0,0,0.06172839506172839,46.91358024691358,0)" xlink:href="#ag"/><use transform="matrix(0.06172839506172839,0,0,0.06172839506172839,59.25925925925926,0)" xlink:href="#an"/><use transform="matrix(0.06172839506172839,0,0,0.06172839506172839,65.4320987654321,0)" xlink:href="#ai"/><use transform="matrix(0.06172839506172839,0,0,0.06172839506172839,77.77777777777779,0)" xlink:href="#aA"/><use transform="matrix(0.06172839506172839,0,0,0.06172839506172839,85.12345679012347,0)" xlink:href="#aB"/><use transform="matrix(0.06172839506172839,0,0,0.06172839506172839,97.46913580246915,0)" xlink:href="#as"/><use transform="matrix(0.06172839506172839,0,0,0.06172839506172839,109.81481481481484,0)" xlink:href="#an"/><use transform="matrix(0.06172839506172839,0,0,0.06172839506172839,115.98765432098767,0)" xlink:href="#as"/><use transform="matrix(0.06172839506172839,0,0,0.06172839506172839,128.33333333333334,0)" xlink:href="#ap"/><use transform="matrix(0.06172839506172839,0,0,0.06172839506172839,134.50617283950618,0)" xlink:href="#aC"/><use transform="matrix(0.06172839506172839,0,0,0.06172839506172839,148.02469135802468,0)" xlink:href="#aD"/><use transform="matrix(0.06172839506172839,0,0,0.06172839506172839,155.37037037037035,0)" xlink:href="#ap"/><use transform="matrix(0.06172839506172839,0,0,0.06172839506172839,161.5432098765432,0)" xlink:href="#aE"/><use transform="matrix(0.06172839506172839,0,0,0.06172839506172839,176.358024691358,0)" xlink:href="#aF"/><use transform="matrix(0.06172839506172839,0,0,0.06172839506172839,181.23456790123453,0)" xlink:href="#an"/><use transform="matrix(0.06172839506172839,0,0,0.06172839506172839,187.40740740740736,0)" xlink:href="#aG"/><use transform="matrix(0.06172839506172839,0,0,0.06172839506172839,199.75308641975303,0)" xlink:href="#ai"/><use transform="matrix(0.06172839506172839,0,0,0.06172839506172839,212.0987654320987,0)" xlink:href="#aj"/><use transform="matrix(0.06172839506172839,0,0,0.06172839506172839,219.44444444444437,0)" xlink:href="#aH"/><use transform="matrix(0.06172839506172839,0,0,0.06172839506172839,232.40740740740733,0)" xlink:href="#aE"/><use transform="matrix(0.06172839506172839,0,0,0.06172839506172839,247.22222222222214,0)" xlink:href="#aj"/><use transform="matrix(0.06172839506172839,0,0,0.06172839506172839,254.56790123456784,0)" xlink:href="#aj"/><use transform="matrix(0.06172839506172839,0,0,0.06172839506172839,261.9135802469135,0)" xlink:href="#al"/><use transform="matrix(0.06172839506172839,0,0,0.06172839506172839,274.2592592592592,0)" xlink:href="#aj"/><use transform="matrix(0.06172839506172839,0,0,0.06172839506172839,280.37037037037027,0)" xlink:href="#aI"/></g><path fill="#3a414a" d="M18-27v-27l151-64-151-65v-27l175 74v36" id="aJ"/><g id="g"><use transform="matrix(0.06172839506172839,0,0,0.06172839506172839,0,0)" xlink:href="#aw"/><use transform="matrix(0.06172839506172839,0,0,0.06172839506172839,15.987654320987653,0)" xlink:href="#aJ"/></g><path fill="#45a9f9" d="M617-1102c355 0 481 238 477 599H322c5 222 84 388 301 388 144 0 244-59 284-166l158 45C1002-72 854 20 623 20c-342 0-490-220-490-568 0-346 151-554 484-554zm291 461c-18-192-90-328-289-328-194 0-287 128-295 328h584" id="aK"/><path fill="#45a9f9" d="M932 0L611-444 288 0H94l415-556-397-526h199l300 421 298-421h201L713-558 1133 0H932" id="aL"/><path fill="#45a9f9" d="M631 20c-350 0-501-215-501-562 0-355 162-560 502-560 250 0 399 118 446 323l-192 14c-23-124-109-196-262-196-242 0-305 171-305 415 1 245 61 427 304 427 151 0 248-77 267-215l190 12C1039-107 883 20 631 20" id="aM"/><path fill="#45a9f9" d="M528 20c-247 0-343-132-343-381v-721h180v686c-4 177 45 284 224 277 194-8 279-136 279-336v-627h181c3 360-6 732 6 1082H885c-4-54-7-126-8-185h-3C809-64 714 20 528 20" id="aN"/><path fill="#45a9f9" d="M682 16c-209 0-323-80-324-285v-671H190v-142h170l58-282h120v282h432v142H538v652c2 114 60 155 182 155 106 0 209-16 297-34v137C921-4 806 16 682 16" id="aO"/><path fill="#e6e6e6" d="M891-1484c-201 251-362 514-362 954 0 441 161 704 362 955H701C500 176 342-90 342-532c0-440 159-704 359-952h190" id="aP"/><path fill="#e6e6e6" d="M865-914c-3-187-2-380-2-570h180v1261c0 76 1 155 6 223H877c-8-49-9-116-10-174h-5C801-44 708 26 530 26c-135 0-234-46-297-139s-95-232-95-419c0-377 131-566 392-566 176 0 271 63 335 184zm-286-51c-222 0-255 197-255 427 0 229 31 425 253 425 237 0 286-195 286-441 0-238-52-411-284-411" id="aQ"/><path fill="#e6e6e6" d="M1000-272c3 95 12 159 101 161 21 0 41-3 59-7V-6c-44 10-86 16-139 16-141 2-191-84-197-217h-6C748-76 648 20 446 20c-207 0-318-120-318-322 0-266 194-348 454-354l236-4c12-191-40-305-222-305-140 0-220 47-232 172l-188-17c33-204 181-292 423-292 255 0 401 118 401 364v466zm-683-27c0 109 63 184 175 182 166-3 259-96 306-217 24-65 20-120 20-200-232 7-501-28-501 235" id="aR"/><path fill="#e6e6e6" d="M682 16c-209 0-323-80-324-285v-671H190v-142h170l58-282h120v282h432v142H538v652c2 114 60 155 182 155 106 0 209-16 297-34v137C921-4 806 16 682 16" id="aS"/><path fill="#e6e6e6" d="M496 0v-299h235V0H496zm0-783v-299h235v299H496" id="aT"/><path fill="#e6e6e6" d="M709-1193V0H519v-1193H76v-156h1076v156H709" id="aU"/><path fill="#e6e6e6" d="M528-1484c201 248 357 511 357 952 0 442-156 709-357 957H336C537 174 700-89 700-530c0-440-163-703-364-954h192" id="aV"/><path fill="#19f9d8" d="M162 0v-1349h919v156H353v422h668v154H353v461h769V0H162" id="aW"/><path fill="#19f9d8" d="M745-142h380V0H143v-142h422v-798H246v-142h499v940zM545-1292v-192h200v192H545" id="aX"/><path fill="#19f9d8" d="M648-963c-190 6-283 138-283 336V0H185v-1484h181c-2 197 6 404-9 587h3c62-120 159-205 339-205 242 0 351 135 350 381V0H868v-695c1-168-57-273-220-268" id="aY"/><path fill="#19f9d8" d="M617-1102c355 0 481 238 477 599H322c5 222 84 388 301 388 144 0 244-59 284-166l158 45C1002-72 854 20 623 20c-342 0-490-220-490-568 0-346 151-554 484-554zm291 461c-18-192-90-328-289-328-194 0-287 128-295 328h584" id="aZ"/><path fill="#19f9d8" d="M839-1102c70 0 148 7 206 17v167c-112-18-268-36-363 15-129 69-208 203-208 395V0H294c-10-367 32-789-52-1082h171c21 75 41 161 48 250h5c67-152 152-270 373-270" id="ba"/><path fill="#e6e6e6" d="M116-571v-205l995-418v154L253-674l858 367v153" id="bb"/><path fill="#19f9d8" d="M615-1102c343 0 484 203 482 560-1 347-147 562-488 562-336 0-475-219-479-562-4-349 156-560 485-560zm-8 989c240 0 301-180 301-429 0-245-55-427-290-427-236 0-299 181-299 427 0 243 61 429 288 429" id="bc"/><path fill="#e6e6e6" d="M259 363l169-662h265L382 363H259" id="bd"/><path fill="#e6e6e6" d="M1121-976c0 225-142 341-344 379L1177 0H957L591-575H353V0H162v-1349h482c281 3 477 100 477 373zM633-726c181-1 296-73 296-247 0-149-101-223-304-223H353v470h280" id="be"/><path fill="#e6e6e6" d="M116-154v-153l858-367-858-366v-154l995 418v205" id="bf"/><path fill="#e6e6e6" d="M677 91c1 136 41 195 171 195h213v139H796c-186-8-294-116-294-303v-351c-3-164-120-222-275-232v-137c155-10 275-69 275-231v-352c6-189 106-303 294-303h265v139H848c-126-3-171 67-171 195v346c-5 158-108 234-231 274 128 36 231 115 231 274V91" id="bg"/><g id="h"><use transform="matrix(0.010850694444444444,0,0,0.010850694444444444,0,0)" xlink:href="#aK"/><use transform="matrix(0.010850694444444444,0,0,0.010850694444444444,13.335503472222221,0)" xlink:href="#aL"/><use transform="matrix(0.010850694444444444,0,0,0.010850694444444444,26.671006944444443,0)" xlink:href="#aK"/><use transform="matrix(0.010850694444444444,0,0,0.010850694444444444,40.006510416666664,0)" xlink:href="#aM"/><use transform="matrix(0.010850694444444444,0,0,0.010850694444444444,53.342013888888886,0)" xlink:href="#aN"/><use transform="matrix(0.010850694444444444,0,0,0.010850694444444444,66.67751736111111,0)" xlink:href="#aO"/><use transform="matrix(0.010850694444444444,0,0,0.010850694444444444,80.01302083333334,0)" xlink:href="#aK"/><use transform="matrix(0.010850694444444444,0,0,0.010850694444444444,93.34852430555557,0)" xlink:href="#aP"/><use transform="matrix(0.010850694444444444,0,0,0.010850694444444444,106.6840277777778,0)" xlink:href="#aQ"/><use transform="matrix(0.010850694444444444,0,0,0.010850694444444444,120.01953125000003,0)" xlink:href="#aR"/><use transform="matrix(0.010850694444444444,0,0,0.010850694444444444,133.35503472222226,0)" xlink:href="#aS"/><use transform="matrix(0.010850694444444444,0,0,0.010850694444444444,146.69053819444449,0)" xlink:href="#aR"/><use transform="matrix(0.010850694444444444,0,0,0.010850694444444444,160.0260416666667,0)" xlink:href="#aT"/><use transform="matrix(0.010850694444444444,0,0,0.010850694444444444,173.36154513888894,0)" xlink:href="#aU"/><use transform="matrix(0.010850694444444444,0,0,0.010850694444444444,186.69704861111117,0)" xlink:href="#aV"/><use transform="matrix(0.010850694444444444,0,0,0.010850694444444444,200.0325520833334,0)" xlink:href="#aT"/><use transform="matrix(0.010850694444444444,0,0,0.010850694444444444,213.36805555555563,0)" xlink:href="#aW"/><use transform="matrix(0.010850694444444444,0,0,0.010850694444444444,226.70355902777786,0)" xlink:href="#aX"/><use transform="matrix(0.010850694444444444,0,0,0.010850694444444444,240.03906250000006,0)" xlink:href="#aY"/><use transform="matrix(0.010850694444444444,0,0,0.010850694444444444,253.37456597222234,0)" xlink:href="#aZ"/><use transform="matrix(0.010850694444444444,0,0,0.010850694444444444,266.7100694444445,0)" xlink:href="#ba"/><use transform="matrix(0.010850694444444444,0,0,0.010850694444444444,280.04557291666674,0)" xlink:href="#bb"/><use transform="matrix(0.010850694444444444,0,0,0.010850694444444444,293.38107638888897,0)" xlink:href="#aW"/><use transform="matrix(0.010850694444444444,0,0,0.010850694444444444,306.7165798611112,0)" xlink:href="#ba"/><use transform="matrix(0.010850694444444444,0,0,0.010850694444444444,320.0520833333334,0)" xlink:href="#ba"/><use transform="matrix(0.010850694444444444,0,0,0.010850694444444444,333.38758680555566,0)" xlink:href="#bc"/><use transform="matrix(0.010850694444444444,0,0,0.010850694444444444,346.7230902777779,0)" xlink:href="#ba"/><use transform="matrix(0.010850694444444444,0,0,0.010850694444444444,360.05859375000017,0)" xlink:href="#bd"/><use transform="matrix(0.010850694444444444,0,0,0.010850694444444444,373.39409722222234,0)" xlink:href="#be"/><use transform="matrix(0.010850694444444444,0,0,0.010850694444444444,386.72960069444457,0)" xlink:href="#bf"/><use transform="matrix(0.010850694444444444,0,0,0.010850694444444444,400.0651041666668,0)" xlink:href="#bg"/></g><path fill="#ff75b5" d="M745-142h380V0H143v-142h422v-798H246v-142h499v940zM545-1292v-192h200v192H545" id="bh"/><path fill="#ff75b5" d="M839-1335c-182-6-269 67-259 253h491v142H580V0H400v-940H138v-142h262c-15-293 132-408 418-402 94 2 200 7 281 21v145c-75-10-177-14-260-17" id="bi"/><path fill="#e6e6e6" d="M689-397H541l-24-951h196zM515 0v-201h194V0H515" id="bj"/><path fill="#e6e6e6" d="M715 0H502L69-1082h202c94 253 197 500 285 758 19 57 36 126 52 183 96-335 234-626 350-941h201" id="bk"/><path fill="#e6e6e6" d="M736-142h380V0H134v-142h422v-1200H267v-142h469v1342" id="bl"/><path fill="#e6e6e6" d="M617-1102c355 0 481 238 477 599H322c5 222 84 388 301 388 144 0 244-59 284-166l158 45C1002-72 854 20 623 20c-342 0-490-220-490-568 0-346 151-554 484-554zm291 461c-18-192-90-328-289-328-194 0-287 128-295 328h584" id="bm"/><path fill="#e6e6e6" d="M365-904c58-129 161-200 334-200 130 0 228 46 293 138s98 233 98 420c0 189-34 331-102 425S824 20 698 20c-170 0-275-64-336-184 0 55-3 116-9 164H179c5-68 6-147 6-223v-1261h180c-2 193 4 394-4 580h4zm283 791c221 0 256-197 256-427 0-229-34-425-254-425-236 0-285 195-285 441 0 237 53 411 283 411" id="bn"/><path fill="#e6e6e6" d="M615-1102c343 0 484 203 482 560-1 347-147 562-488 562-336 0-475-219-479-562-4-349 156-560 485-560zm-8 989c240 0 301-180 301-429 0-245-55-427-290-427-236 0-299 181-299 427 0 243 61 429 288 429" id="bo"/><path fill="#e6e6e6" d="M496 0v-299h235V0H496" id="bp"/><path fill="#45a9f9" d="M839-1335c-182-6-269 67-259 253h491v142H580V0H400v-940H138v-142h262c-15-293 132-408 418-402 94 2 200 7 281 21v145c-75-10-177-14-260-17" id="bq"/><path fill="#45a9f9" d="M745-142h380V0H143v-142h422v-798H246v-142h499v940zM545-1292v-192h200v192H545" id="br"/><path fill="#45a9f9" d="M706-1102c241 0 344 136 343 381V0H868v-695c1-168-57-273-220-268-190 6-283 138-283 336V0H185c-3-360 6-732-6-1082h170c4 54 7 126 8 185h3c63-121 164-204 346-205" id="bs"/><path fill="#45a9f9" d="M865-914c-3-187-2-380-2-570h180v1261c0 76 1 155 6 223H877c-8-49-9-116-10-174h-5C801-44 708 26 530 26c-135 0-234-46-297-139s-95-232-95-419c0-377 131-566 392-566 176 0 271 63 335 184zm-286-51c-222 0-255 197-255 427 0 229 31 425 253 425 237 0 286-195 286-441 0-238-52-411-284-411" id="bt"/><g id="i"><use transform="matrix(0.010850694444444444,0,0,0.010850694444444444,0,0)" xlink:href="#bh"/><use transform="matrix(0.010850694444444444,0,0,0.010850694444444444,13.335503472222221,0)" xlink:href="#bi"/><use transform="matrix(0.010850694444444444,0,0,0.010850694444444444,26.671006944444443,0)" xlink:href="#aP"/><use transform="matrix(0.010850694444444444,0,0,0.010850694444444444,40.006510416666664,0)" xlink:href="#bj"/><use transform="matrix(0.010850694444444444,0,0,0.010850694444444444,53.342013888888886,0)" xlink:href="#aR"/><use transform="matrix(0.010850694444444444,0,0,0.010850694444444444,66.67751736111111,0)" xlink:href="#bk"/><use transform="matrix(0.010850694444444444,0,0,0.010850694444444444,80.01302083333334,0)" xlink:href="#aR"/><use transform="matrix(0.010850694444444444,0,0,0.010850694444444444,93.34852430555557,0)" xlink:href="#bl"/><use transform="matrix(0.010850694444444444,0,0,0.010850694444444444,106.6840277777778,0)" xlink:href="#bm"/><use transform="matrix(0.010850694444444444,0,0,0.010850694444444444,120.01953125000003,0)" xlink:href="#aR"/><use transform="matrix(0.010850694444444444,0,0,0.010850694444444444,133.35503472222226,0)" xlink:href="#bn"/><use transform="matrix(0.010850694444444444,0,0,0.010850694444444444,146.69053819444449,0)" xlink:href="#bl"/><use transform="matrix(0.010850694444444444,0,0,0.010850694444444444,160.0260416666667,0)" xlink:href="#bm"/><use transform="matrix(0.010850694444444444,0,0,0.010850694444444444,173.36154513888894,0)" xlink:href="#be"/><use transform="matrix(0.010850694444444444,0,0,0.010850694444444444,186.69704861111117,0)" xlink:href="#bo"/><use transform="matrix(0.010850694444444444,0,0,0.010850694444444444,200.0325520833334,0)" xlink:href="#bl"/><use transform="matrix(0.010850694444444444,0,0,0.010850694444444444,213.36805555555563,0)" xlink:href="#bm"/><use transform="matrix(0.010850694444444444,0,0,0.010850694444444444,226.70355902777786,0)" xlink:href="#bp"/><use transform="matrix(0.010850694444444444,0,0,0.010850694444444444,240.03906250000006,0)" xlink:href="#bq"/><use transform="matrix(0.010850694444444444,0,0,0.010850694444444444,253.37456597222234,0)" xlink:href="#br"/><use transform="matrix(0.010850694444444444,0,0,0.010850694444444444,266.7100694444445,0)" xlink:href="#bs"/><use transform="matrix(0.010850694444444444,0,0,0.010850694444444444,280.04557291666674,0)" xlink:href="#bt"/><use transform="matrix(0.010850694444444444,0,0,0.010850694444444444,293.38107638888897,0)" xlink:href="#aP"/></g><path fill="#e6e6e6" d="M528 20c-247 0-343-132-343-381v-721h180v686c-4 177 45 284 224 277 194-8 279-136 279-336v-627h181c3 360-6 732 6 1082H885c-4-54-7-126-8-185h-3C809-64 714 20 528 20" id="bu"/><path fill="#e6e6e6" d="M873-819c-18-114-119-146-250-146-163 0-245 50-245 151 0 151 170 148 294 185 182 54 388 94 388 320 0 240-189 325-439 329-245 4-410-69-454-268l159-31c24 133 136 168 295 165 144-2 270-31 270-171 0-164-195-160-331-202-167-52-350-87-350-299 0-218 173-315 413-313 220 2 373 77 412 260" id="bv"/><path fill="#e6e6e6" d="M839-1102c70 0 148 7 206 17v167c-112-18-268-36-363 15-129 69-208 203-208 395V0H294c-10-367 32-789-52-1082h171c21 75 41 161 48 250h5c67-152 152-270 373-270" id="bw"/><path fill="#e6e6e6" d="M650-1214c-281 0-336 244-336 533 0 295 60 546 347 546 188 0 263-142 322-282l159 65C1058-155 935 20 659 20c-401 0-546-295-546-701 0-407 135-689 536-689 264 0 391 146 466 335l-168 65c-47-129-127-244-297-244" id="bx"/><path fill="#e6e6e6" d="M706-1102c241 0 344 136 343 381V0H868v-695c1-168-57-273-220-268-190 6-283 138-283 336V0H185c-3-360 6-732-6-1082h170c4 54 7 126 8 185h3c63-121 164-204 346-205" id="by"/><path fill="#e6e6e6" d="M932 0L611-444 288 0H94l415-556-397-526h199l300 421 298-421h201L713-558 1133 0H932" id="bz"/><path fill="#45a9f9" d="M1048-32c-2 300-135 456-433 456-222-1-358-88-400-267l184-25c22 99 100 157 222 156 184-2 248-125 248-315 0-64 3-133-2-194C807-100 706-13 524-12c-306 0-381-228-381-537 0-318 85-550 400-550 164 0 271 83 325 202h3c1-60 3-134 12-185h171c-13 339-4 702-6 1050zM585-145c210-8 284-178 284-406 0-192-52-331-177-392-33-16-69-22-104-22-223 2-259 184-259 414 0 229 31 415 256 406" id="bA"/><path fill="#45a9f9" d="M1121-976c0 225-142 341-344 379L1177 0H957L591-575H353V0H162v-1349h482c281 3 477 100 477 373zM633-726c181-1 296-73 296-247 0-149-101-223-304-223H353v470h280" id="bB"/><path fill="#45a9f9" d="M615-1102c343 0 484 203 482 560-1 347-147 562-488 562-336 0-475-219-479-562-4-349 156-560 485-560zm-8 989c240 0 301-180 301-429 0-245-55-427-290-427-236 0-299 181-299 427 0 243 61 429 288 429" id="bC"/><path fill="#45a9f9" d="M736-142h380V0H134v-142h422v-1200H267v-142h469v1342" id="bD"/><g id="k"><use transform="matrix(0.010850694444444444,0,0,0.010850694444444444,0,0)" xlink:href="#bu"/><use transform="matrix(0.010850694444444444,0,0,0.010850694444444444,13.335503472222221,0)" xlink:href="#bv"/><use transform="matrix(0.010850694444444444,0,0,0.010850694444444444,26.671006944444443,0)" xlink:href="#bm"/><use transform="matrix(0.010850694444444444,0,0,0.010850694444444444,40.006510416666664,0)" xlink:href="#bw"/><use transform="matrix(0.010850694444444444,0,0,0.010850694444444444,53.342013888888886,0)" xlink:href="#bx"/><use transform="matrix(0.010850694444444444,0,0,0.010850694444444444,66.67751736111111,0)" xlink:href="#bo"/><use transform="matrix(0.010850694444444444,0,0,0.010850694444444444,80.01302083333334,0)" xlink:href="#by"/><use transform="matrix(0.010850694444444444,0,0,0.010850694444444444,93.34852430555557,0)" xlink:href="#aS"/><use transform="matrix(0.010850694444444444,0,0,0.010850694444444444,106.6840277777778,0)" xlink:href="#bm"/><use transform="matrix(0.010850694444444444,0,0,0.010850694444444444,120.01953125000003,0)" xlink:href="#bz"/><use transform="matrix(0.010850694444444444,0,0,0.010850694444444444,133.35503472222226,0)" xlink:href="#aS"/><use transform="matrix(0.010850694444444444,0,0,0.010850694444444444,146.69053819444449,0)" xlink:href="#bp"/><use transform="matrix(0.010850694444444444,0,0,0.010850694444444444,160.0260416666667,0)" xlink:href="#bA"/><use transform="matrix(0.010850694444444444,0,0,0.010850694444444444,173.36154513888894,0)" xlink:href="#aK"/><use transform="matrix(0.010850694444444444,0,0,0.010850694444444444,186.69704861111117,0)" xlink:href="#aO"/><use transform="matrix(0.010850694444444444,0,0,0.010850694444444444,200.0325520833334,0)" xlink:href="#bB"/><use transform="matrix(0.010850694444444444,0,0,0.010850694444444444,213.36805555555563,0)" xlink:href="#bC"/><use transform="matrix(0.010850694444444444,0,0,0.010850694444444444,226.70355902777786,0)" xlink:href="#bD"/><use transform="matrix(0.010850694444444444,0,0,0.010850694444444444,240.03906250000006,0)" xlink:href="#aK"/><use transform="matrix(0.010850694444444444,0,0,0.010850694444444444,253.37456597222234,0)" xlink:href="#aP"/><use transform="matrix(0.010850694444444444,0,0,0.010850694444444444,266.7100694444445,0)" xlink:href="#aV"/></g><g id="l"><use transform="matrix(0.010850694444444444,0,0,0.010850694444444444,0,0)" xlink:href="#aV"/><use transform="matrix(0.010850694444444444,0,0,0.010850694444444444,13.335503472222221,0)" xlink:href="#aV"/></g><path fill="#ff75b5" d="M839-1102c70 0 148 7 206 17v167c-112-18-268-36-363 15-129 69-208 203-208 395V0H294c-10-367 32-789-52-1082h171c21 75 41 161 48 250h5c67-152 152-270 373-270" id="bE"/><path fill="#ff75b5" d="M617-1102c355 0 481 238 477 599H322c5 222 84 388 301 388 144 0 244-59 284-166l158 45C1002-72 854 20 623 20c-342 0-490-220-490-568 0-346 151-554 484-554zm291 461c-18-192-90-328-289-328-194 0-287 128-295 328h584" id="bF"/><path fill="#ff75b5" d="M682 16c-209 0-323-80-324-285v-671H190v-142h170l58-282h120v282h432v142H538v652c2 114 60 155 182 155 106 0 209-16 297-34v137C921-4 806 16 682 16" id="bG"/><path fill="#ff75b5" d="M528 20c-247 0-343-132-343-381v-721h180v686c-4 177 45 284 224 277 194-8 279-136 279-336v-627h181c3 360-6 732 6 1082H885c-4-54-7-126-8-185h-3C809-64 714 20 528 20" id="bH"/><path fill="#ff75b5" d="M706-1102c241 0 344 136 343 381V0H868v-695c1-168-57-273-220-268-190 6-283 138-283 336V0H185c-3-360 6-732-6-1082h170c4 54 7 126 8 185h3c63-121 164-204 346-205" id="bI"/><g id="m"><use transform="matrix(0.010850694444444444,0,0,0.010850694444444444,0,0)" xlink:href="#bE"/><use transform="matrix(0.010850694444444444,0,0,0.010850694444444444,13.335503472222221,0)" xlink:href="#bF"/><use transform="matrix(0.010850694444444444,0,0,0.010850694444444444,26.671006944444443,0)" xlink:href="#bG"/><use transform="matrix(0.010850694444444444,0,0,0.010850694444444444,40.006510416666664,0)" xlink:href="#bH"/><use transform="matrix(0.010850694444444444,0,0,0.010850694444444444,53.342013888888886,0)" xlink:href="#bE"/><use transform="matrix(0.010850694444444444,0,0,0.010850694444444444,66.67751736111111,0)" xlink:href="#bI"/></g><path fill="#19f9d8" d="M682 16c-209 0-323-80-324-285v-671H190v-142h170l58-282h120v282h432v142H538v652c2 114 60 155 182 155 106 0 209-16 297-34v137C921-4 806 16 682 16" id="bJ"/><path fill="#45a9f9" d="M904-1102c199 0 220 177 220 381V0H956v-686c-3-114 0-215-60-264-70-33-125-4-158 71-26 56-39 140-39 252V0H531v-686c-3-114-1-215-61-264-78-41-136 24-157 84-24 69-39 159-39 259V0H105c-3-360 6-732-6-1082h149c6 50 3 123 8 175 36-100 83-195 216-195 135 0 166 79 196 196 42-105 93-196 236-196" id="bK"/><path fill="#45a9f9" d="M1000-272c3 95 12 159 101 161 21 0 41-3 59-7V-6c-44 10-86 16-139 16-141 2-191-84-197-217h-6C748-76 648 20 446 20c-207 0-318-120-318-322 0-266 194-348 454-354l236-4c12-191-40-305-222-305-140 0-220 47-232 172l-188-17c33-204 181-292 423-292 255 0 401 118 401 364v466zm-683-27c0 109 63 184 175 182 166-3 259-96 306-217 24-65 20-120 20-200-232 7-501-28-501 235" id="bL"/><path fill="#45a9f9" d="M914 0L548-499l-132 98V0H236v-1484h180v927l475-525h211L663-617 1125 0H914" id="bM"/><path fill="#45a9f9" d="M237 0v-1349h191v1193h672V0H237" id="bN"/><g id="n"><use transform="matrix(0.010850694444444444,0,0,0.010850694444444444,0,0)" xlink:href="#aW"/><use transform="matrix(0.010850694444444444,0,0,0.010850694444444444,13.335503472222221,0)" xlink:href="#aX"/><use transform="matrix(0.010850694444444444,0,0,0.010850694444444444,26.671006944444443,0)" xlink:href="#bJ"/><use transform="matrix(0.010850694444444444,0,0,0.010850694444444444,40.006510416666664,0)" xlink:href="#aY"/><use transform="matrix(0.010850694444444444,0,0,0.010850694444444444,53.342013888888886,0)" xlink:href="#aZ"/><use transform="matrix(0.010850694444444444,0,0,0.010850694444444444,66.67751736111111,0)" xlink:href="#ba"/><path fill="#8080ff" d="M-1.1 4.72h82.23v.9H-1.1z"/><use transform="matrix(0.010850694444444444,0,0,0.010850694444444444,80.01302083333334,0)" xlink:href="#bp"/><path fill="#8080ff" d="M78.9 4.72h15.56v.9H78.9z"/><use transform="matrix(0.010850694444444444,0,0,0.010850694444444444,93.34852430555557,0)" xlink:href="#bK"/><use transform="matrix(0.010850694444444444,0,0,0.010850694444444444,106.6840277777778,0)" xlink:href="#bL"/><use transform="matrix(0.010850694444444444,0,0,0.010850694444444444,120.01953125000003,0)" xlink:href="#bM"/><use transform="matrix(0.010850694444444444,0,0,0.010850694444444444,133.35503472222226,0)" xlink:href="#aK"/><use transform="matrix(0.010850694444444444,0,0,0.010850694444444444,146.69053819444449,0)" xlink:href="#bN"/><use transform="matrix(0.010850694444444444,0,0,0.010850694444444444,160.0260416666667,0)" xlink:href="#aK"/><use transform="matrix(0.010850694444444444,0,0,0.010850694444444444,173.36154513888894,0)" xlink:href="#bq"/><use transform="matrix(0.010850694444444444,0,0,0.010850694444444444,186.69704861111117,0)" xlink:href="#aO"/><path fill="#8080ff" d="M92.24 4.72h108.9v.9H92.25z"/><use transform="matrix(0.010850694444444444,0,0,0.010850694444444444,200.0325520833334,0)" xlink:href="#aP"/><path fill="#8080ff" d="M198.92 4.72h15.56v.9h-15.56z"/></g><path fill="#ff75b5" d="M1018 0H814c-67-224-138-444-200-673C552-442 476-224 407 0H204L21-1082h178c43 310 105 601 126 933 54-225 128-425 193-638h193c63 212 134 415 185 638 22-336 90-622 136-933h176" id="bO"/><g id="o"><use transform="matrix(0.010850694444444444,0,0,0.010850694444444444,0,0)" xlink:href="#bI"/><use transform="matrix(0.010850694444444444,0,0,0.010850694444444444,13.335503472222221,0)" xlink:href="#bF"/><use transform="matrix(0.010850694444444444,0,0,0.010850694444444444,26.671006944444443,0)" xlink:href="#bO"/></g><path fill="#19f9d8" d="M912-211c-10-84-18-177-18-274v-864h172V0H836L316-1130c7 79 16 167 16 254V0H162v-1349h222" id="bP"/><path fill="#19f9d8" d="M622-1349c296 4 497 117 497 404 0 282-193 424-485 431H353V0H162v-1349h460zm-15 684c195-3 320-88 320-277 0-184-129-255-328-254H353v531h254" id="bQ"/><path fill="#19f9d8" d="M904-1102c199 0 220 177 220 381V0H956v-686c-3-114 0-215-60-264-70-33-125-4-158 71-26 56-39 140-39 252V0H531v-686c-3-114-1-215-61-264-78-41-136 24-157 84-24 69-39 159-39 259V0H105c-3-360 6-732-6-1082h149c6 50 3 123 8 175 36-100 83-195 216-195 135 0 166 79 196 196 42-105 93-196 236-196" id="bR"/><path fill="#19f9d8" d="M873-819c-18-114-119-146-250-146-163 0-245 50-245 151 0 151 170 148 294 185 182 54 388 94 388 320 0 240-189 325-439 329-245 4-410-69-454-268l159-31c24 133 136 168 295 165 144-2 270-31 270-171 0-164-195-160-331-202-167-52-350-87-350-299 0-218 173-315 413-313 220 2 373 77 412 260" id="bS"/><path fill="#19f9d8" d="M706-1102c241 0 344 136 343 381V0H868v-695c1-168-57-273-220-268-190 6-283 138-283 336V0H185c-3-360 6-732-6-1082h170c4 54 7 126 8 185h3c63-121 164-204 346-205" id="bT"/><g id="p"><use transform="matrix(0.010850694444444444,0,0,0.010850694444444444,0,0)" xlink:href="#bP"/><use transform="matrix(0.010850694444444444,0,0,0.010850694444444444,13.335503472222221,0)" xlink:href="#bc"/><use transform="matrix(0.010850694444444444,0,0,0.010850694444444444,26.671006944444443,0)" xlink:href="#bJ"/><use transform="matrix(0.010850694444444444,0,0,0.010850694444444444,40.006510416666664,0)" xlink:href="#bQ"/><use transform="matrix(0.010850694444444444,0,0,0.010850694444444444,53.342013888888886,0)" xlink:href="#aZ"/><use transform="matrix(0.010850694444444444,0,0,0.010850694444444444,66.67751736111111,0)" xlink:href="#ba"/><use transform="matrix(0.010850694444444444,0,0,0.010850694444444444,80.01302083333334,0)" xlink:href="#bR"/><use transform="matrix(0.010850694444444444,0,0,0.010850694444444444,93.34852430555557,0)" xlink:href="#aX"/><use transform="matrix(0.010850694444444444,0,0,0.010850694444444444,106.6840277777778,0)" xlink:href="#bS"/><use transform="matrix(0.010850694444444444,0,0,0.010850694444444444,120.01953125000003,0)" xlink:href="#bS"/><use transform="matrix(0.010850694444444444,0,0,0.010850694444444444,133.35503472222226,0)" xlink:href="#bc"/><use transform="matrix(0.010850694444444444,0,0,0.010850694444444444,146.69053819444449,0)" xlink:href="#bT"/><use transform="matrix(0.010850694444444444,0,0,0.010850694444444444,160.0260416666667,0)" xlink:href="#aW"/><use transform="matrix(0.010850694444444444,0,0,0.010850694444444444,173.36154513888894,0)" xlink:href="#ba"/><use transform="matrix(0.010850694444444444,0,0,0.010850694444444444,186.69704861111117,0)" xlink:href="#ba"/><use transform="matrix(0.010850694444444444,0,0,0.010850694444444444,200.0325520833334,0)" xlink:href="#bc"/><use transform="matrix(0.010850694444444444,0,0,0.010850694444444444,213.36805555555563,0)" xlink:href="#ba"/><use transform="matrix(0.010850694444444444,0,0,0.010850694444444444,226.70355902777786,0)" xlink:href="#aP"/><use transform="matrix(0.010850694444444444,0,0,0.010850694444444444,240.03906250000006,0)" xlink:href="#aV"/></g><use transform="matrix(0.010850694444444444,0,0,0.010850694444444444,0,0)" xlink:href="#aV" id="q"/><path fill="#ff9ac1" d="M682 16c-209 0-323-80-324-285v-671H190v-142h170l58-282h120v282h432v142H538v652c2 114 60 155 182 155 106 0 209-16 297-34v137C921-4 806 16 682 16" id="bU"/><path fill="#ff9ac1" d="M648-963c-190 6-283 138-283 336V0H185v-1484h181c-2 197 6 404-9 587h3c62-120 159-205 339-205 242 0 351 135 350 381V0H868v-695c1-168-57-273-220-268" id="bV"/><path fill="#ff9ac1" d="M745-142h380V0H143v-142h422v-798H246v-142h499v940zM545-1292v-192h200v192H545" id="bW"/><path fill="#ff9ac1" d="M873-819c-18-114-119-146-250-146-163 0-245 50-245 151 0 151 170 148 294 185 182 54 388 94 388 320 0 240-189 325-439 329-245 4-410-69-454-268l159-31c24 133 136 168 295 165 144-2 270-31 270-171 0-164-195-160-331-202-167-52-350-87-350-299 0-218 173-315 413-313 220 2 373 77 412 260" id="bX"/><path fill="#45a9f9" d="M1018 0H814c-67-224-138-444-200-673C552-442 476-224 407 0H204L21-1082h178c43 310 105 601 126 933 54-225 128-425 193-638h193c63 212 134 415 185 638 22-336 90-622 136-933h176" id="bY"/><path fill="#45a9f9" d="M839-1102c70 0 148 7 206 17v167c-112-18-268-36-363 15-129 69-208 203-208 395V0H294c-10-367 32-789-52-1082h171c21 75 41 161 48 250h5c67-152 152-270 373-270" id="bZ"/><path fill="#45a9f9" d="M698-1104c312 3 392 244 392 558 0 315-82 566-392 566-169 0-277-65-331-184h-5c8 188 2 394 4 589H185V-858c0-76-1-156-6-224h175c6 52 9 120 10 178h4c58-122 150-202 330-200zm-49 991c225 0 255-203 255-433 0-225-32-419-253-419-236 0-285 192-285 441 0 237 53 411 283 411" id="ca"/><g id="r"><use transform="matrix(0.010850694444444444,0,0,0.010850694444444444,0,0)" xlink:href="#bU"/><use transform="matrix(0.010850694444444444,0,0,0.010850694444444444,13.335503472222221,0)" xlink:href="#bV"/><use transform="matrix(0.010850694444444444,0,0,0.010850694444444444,26.671006944444443,0)" xlink:href="#bW"/><use transform="matrix(0.010850694444444444,0,0,0.010850694444444444,40.006510416666664,0)" xlink:href="#bX"/><use transform="matrix(0.010850694444444444,0,0,0.010850694444444444,53.342013888888886,0)" xlink:href="#bp"/><use transform="matrix(0.010850694444444444,0,0,0.010850694444444444,66.67751736111111,0)" xlink:href="#bY"/><use transform="matrix(0.010850694444444444,0,0,0.010850694444444444,80.01302083333334,0)" xlink:href="#bL"/><use transform="matrix(0.010850694444444444,0,0,0.010850694444444444,93.34852430555557,0)" xlink:href="#bZ"/><use transform="matrix(0.010850694444444444,0,0,0.010850694444444444,106.6840277777778,0)" xlink:href="#ca"/><use transform="matrix(0.010850694444444444,0,0,0.010850694444444444,120.01953125000003,0)" xlink:href="#ca"/><use transform="matrix(0.010850694444444444,0,0,0.010850694444444444,133.35503472222226,0)" xlink:href="#aK"/><use transform="matrix(0.010850694444444444,0,0,0.010850694444444444,146.69053819444449,0)" xlink:href="#bZ"/><use transform="matrix(0.010850694444444444,0,0,0.010850694444444444,160.0260416666667,0)" xlink:href="#bp"/><use transform="matrix(0.010850694444444444,0,0,0.010850694444444444,173.36154513888894,0)" xlink:href="#aK"/><use transform="matrix(0.010850694444444444,0,0,0.010850694444444444,186.69704861111117,0)" xlink:href="#aL"/><use transform="matrix(0.010850694444444444,0,0,0.010850694444444444,200.0325520833334,0)" xlink:href="#aK"/><use transform="matrix(0.010850694444444444,0,0,0.010850694444444444,213.36805555555563,0)" xlink:href="#aM"/><use transform="matrix(0.010850694444444444,0,0,0.010850694444444444,226.70355902777786,0)" xlink:href="#aN"/><use transform="matrix(0.010850694444444444,0,0,0.010850694444444444,240.03906250000006,0)" xlink:href="#aO"/><use transform="matrix(0.010850694444444444,0,0,0.010850694444444444,253.37456597222234,0)" xlink:href="#aK"/><use transform="matrix(0.010850694444444444,0,0,0.010850694444444444,266.7100694444445,0)" xlink:href="#aP"/><use transform="matrix(0.010850694444444444,0,0,0.010850694444444444,280.04557291666674,0)" xlink:href="#aQ"/><use transform="matrix(0.010850694444444444,0,0,0.010850694444444444,293.38107638888897,0)" xlink:href="#aR"/><use transform="matrix(0.010850694444444444,0,0,0.010850694444444444,306.7165798611112,0)" xlink:href="#aS"/><use transform="matrix(0.010850694444444444,0,0,0.010850694444444444,320.0520833333334,0)" xlink:href="#aR"/><use transform="matrix(0.010850694444444444,0,0,0.010850694444444444,333.38758680555566,0)" xlink:href="#aV"/></g><path fill="#e6e6e6" d="M726 122c-7 187-108 303-294 303H167V286h213c129-2 172-59 172-195v-347c5-160 106-236 230-276-125-36-230-116-230-272v-346c2-128-45-195-172-195H167v-139h265c187 7 294 114 294 303v352c4 162 120 221 275 231v137c-155 10-275 68-275 232v351" id="cb"/><use transform="matrix(0.010850694444444444,0,0,0.010850694444444444,0,0)" xlink:href="#cb" id="s"/><path fill="#6f7681" d="M148-1120c216-7 379-89 463-229h166v1204h353V0H157v-145h439v-1021c-79 124-254 184-448 194v-148" id="cc"/><use transform="matrix(0.010850694444444444,0,0,0.010850694444444444,0,0)" xlink:href="#cc" id="t"/><path fill="#6f7681" d="M611-1370c266 0 451 106 451 368 0 147-77 243-154 327-132 144-316 255-451 395-42 44-75 87-96 134h723V0H144v-117c124-264 387-411 582-603 73-72 151-147 151-271 0-161-104-231-266-231-163 0-249 90-268 238l-184-17c35-233 185-369 452-369" id="cd"/><use transform="matrix(0.010850694444444444,0,0,0.010850694444444444,0,0)" xlink:href="#cd" id="u"/><path fill="#6f7681" d="M1060-1016c0 191-128 285-295 323v4c154 18 262 91 313 209 14 35 21 72 21 110 0 277-194 390-478 390-292 0-457-129-493-382l186-17c24 161 121 250 307 250 172 1 298-80 291-247-8-208-220-239-446-233v-156c217 9 409-34 409-232 0-152-102-225-264-225-159 0-264 88-278 233l-181-14c33-239 196-367 461-367 264 0 447 102 447 354" id="ce"/><use transform="matrix(0.010850694444444444,0,0,0.010850694444444444,0,0)" xlink:href="#ce" id="v"/><path fill="#6f7681" d="M937-319V0H757v-319H103v-140l635-890h199v888h188v142H937zm-180-835L257-461h500v-693" id="cf"/><use transform="matrix(0.010850694444444444,0,0,0.010850694444444444,0,0)" xlink:href="#cf" id="w"/><path fill="#6f7681" d="M353-779c69-51 166-92 291-90 218 3 357 100 423 255 21 52 32 109 32 170 0 305-189 464-500 464-268 0-424-116-471-335l182-21c35 130 124 212 293 209 198-4 309-114 309-313 0-182-118-282-305-282-120 0-198 45-262 101H169l47-728h801v145H382" id="cg"/><use transform="matrix(0.010850694444444444,0,0,0.010850694444444444,0,0)" xlink:href="#cg" id="x"/><path fill="#6f7681" d="M672-881c271 0 424 163 424 435 0 291-160 466-455 466-367 0-490-287-490-662 0-324 85-568 293-680 129-70 351-59 460 16 73 50 125 123 153 223l-172 31c-31-108-107-172-232-172-259 0-316 252-323 529 59-113 178-186 342-186zm-37 756c186 0 278-124 278-313s-96-304-284-304c-163 0-281 93-281 261 0 157 65 270 168 327 35 19 75 29 119 29" id="ch"/><use transform="matrix(0.010850694444444444,0,0,0.010850694444444444,0,0)" xlink:href="#ch" id="y"/><path fill="#6f7681" d="M1069-1210C890-948 720-664 634-316c-25 105-38 210-38 316H408c9-385 153-667 302-925 57-98 120-190 185-279H158v-145h911v139" id="ci"/><use transform="matrix(0.010850694444444444,0,0,0.010850694444444444,0,0)" xlink:href="#ci" id="z"/><path fill="#6f7681" d="M809-709c168 33 285 134 285 331 0 277-191 398-480 398-287 0-481-120-481-396 0-192 118-296 281-331v-4c-145-39-248-139-248-313 0-238 192-346 444-346 211 0 357 75 422 217 19 41 27 86 27 131 0 172-101 274-250 309v4zm-197-70c168 0 260-73 260-233 0-158-100-224-262-224-160 0-260 68-260 224 0 155 97 232 262 233zm4 664c194 1 291-91 291-280 0-172-115-249-297-249-178 0-291 85-291 253 0 186 106 275 297 276" id="cj"/><use transform="matrix(0.010850694444444444,0,0,0.010850694444444444,0,0)" xlink:href="#cj" id="A"/><path fill="#6f7681" d="M141-911c0-296 172-459 469-459 157 0 276 55 356 166s121 278 121 501c-1 324-87 567-297 677-134 70-367 56-475-22-71-52-117-126-145-226l172-27c34 111 103 176 238 176 187 0 261-138 304-298 16-65 24-141 25-227-59 121-177 199-350 199-275 0-418-184-418-460zm461 318c168 0 289-96 289-269 0-158-59-275-163-332-36-20-77-30-124-30-187 0-280 125-280 313s90 318 278 318" id="ck"/><use transform="matrix(0.010850694444444444,0,0,0.010850694444444444,0,0)" xlink:href="#ck" id="B"/><path d="M15-91v-56l181-69v40L49-119l147 57v40" id="cl"/><path d="M25-224v-37h50v37H25zM25 0v-190h50V0H25" id="cm"/><path d="M135-194c87-1 58 113 63 194h-50c-7-57 23-157-34-157-59 0-34 97-39 157H25l-1-190h47c2 12-1 28 3 38 12-26 28-41 61-42" id="cn"/><path d="M115-3C79 11 28 4 28-45v-112H4v-33h27l15-45h31v45h36v33H77v99c-1 23 16 31 38 25v30" id="co"/><path d="M185-48c-13 30-37 53-82 52C43 2 14-33 14-96s30-98 90-98c62 0 83 45 84 108H66c0 31 8 55 39 56 18 0 30-7 34-22zm-45-69c5-46-57-63-70-21-2 6-4 13-4 21h74" id="cp"/><path d="M135-150c-39-12-60 13-60 57V0H25l-1-190h47c2 13-1 29 3 40 6-28 27-53 61-41v41" id="cq"/><path d="M121-226c-27-7-43 5-38 36h38v33H83V0H34v-157H6v-33h28c-9-59 32-81 87-68v32" id="cr"/><path d="M133-34C117-15 103 5 69 4 32 3 11-16 11-54c-1-60 55-63 116-61 1-26-3-47-28-47-18 1-26 9-28 27l-52-2c7-38 36-58 82-57s74 22 75 68l1 82c-1 14 12 18 25 15v27c-30 8-71 5-69-32zm-48 3c29 0 43-24 42-57-32 0-66-3-65 30 0 17 8 27 23 27" id="cs"/><path d="M190-63c-7 42-38 67-86 67-59 0-84-38-90-98-12-110 154-137 174-36l-49 2c-2-19-15-32-35-32-30 0-35 28-38 64-6 74 65 87 74 30" id="ct"/><path d="M15-22v-40l146-57-146-57v-40l181 69v56" id="cu"/><g id="D"><use transform="matrix(0.05,0,0,0.05,0,0)" xlink:href="#cl"/><use transform="matrix(0.05,0,0,0.05,10.5,0)" xlink:href="#cl"/><use transform="matrix(0.05,0,0,0.05,21,0)" xlink:href="#cm"/><use transform="matrix(0.05,0,0,0.05,26,0)" xlink:href="#cn"/><use transform="matrix(0.05,0,0,0.05,36.95,0)" xlink:href="#co"/><use transform="matrix(0.05,0,0,0.05,42.900000000000006,0)" xlink:href="#cp"/><use transform="matrix(0.05,0,0,0.05,52.900000000000006,0)" xlink:href="#cq"/><use transform="matrix(0.05,0,0,0.05,59.900000000000006,0)" xlink:href="#cr"/><use transform="matrix(0.05,0,0,0.05,65.85000000000001,0)" xlink:href="#cs"/><use transform="matrix(0.05,0,0,0.05,75.85000000000001,0)" xlink:href="#ct"/><use transform="matrix(0.05,0,0,0.05,85.85000000000001,0)" xlink:href="#cp"/><use transform="matrix(0.05,0,0,0.05,95.85000000000001,0)" xlink:href="#cu"/><use transform="matrix(0.05,0,0,0.05,106.35000000000001,0)" xlink:href="#cu"/></g><path d="M24 0v-248h52V0H24" id="cv"/><path d="M238-95c0 69-44 99-111 99C63 4 22-25 22-93v-155h51v151c-1 38 19 59 55 60 90 1 49-130 58-211h52v153" id="cw"/><path d="M137-138c1-29-70-34-71-4 15 46 118 7 119 86 1 83-164 76-172 9l43-7c4 19 20 25 44 25 33 8 57-30 24-41C81-84 22-81 20-136c-2-80 154-74 161-7" id="cx"/><path d="M67-125c0 53 21 87 73 88 37 1 54-22 65-47l45 17C233-25 199 4 140 4 58 4 20-42 15-125 8-235 124-281 211-232c18 10 29 29 36 50l-46 12c-8-25-30-41-62-41-52 0-71 34-72 86" id="cy"/><path d="M110-194c64 0 96 36 96 99 0 64-35 99-97 99-61 0-95-36-95-99 0-62 34-99 96-99zm-1 164c35 0 45-28 45-65 0-40-10-65-43-65-34 0-45 26-45 65 0 36 10 65 43 65" id="cz"/><path d="M144 0l-44-69L55 0H2l70-98-66-92h53l41 62 40-62h54l-67 91 71 99h-54" id="cA"/><g id="E"><use transform="matrix(0.05,0,0,0.05,0,0)" xlink:href="#cv"/><use transform="matrix(0.05,0,0,0.05,5,0)" xlink:href="#cw"/><use transform="matrix(0.05,0,0,0.05,17.950000000000003,0)" xlink:href="#cx"/><use transform="matrix(0.05,0,0,0.05,27.950000000000003,0)" xlink:href="#cp"/><use transform="matrix(0.05,0,0,0.05,37.95,0)" xlink:href="#cq"/><use transform="matrix(0.05,0,0,0.05,44.95,0)" xlink:href="#cy"/><use transform="matrix(0.05,0,0,0.05,57.900000000000006,0)" xlink:href="#cz"/><use transform="matrix(0.05,0,0,0.05,68.85000000000001,0)" xlink:href="#cn"/><use transform="matrix(0.05,0,0,0.05,79.80000000000001,0)" xlink:href="#co"/><use transform="matrix(0.05,0,0,0.05,85.75000000000001,0)" xlink:href="#cp"/><use transform="matrix(0.05,0,0,0.05,95.75000000000001,0)" xlink:href="#cA"/><use transform="matrix(0.05,0,0,0.05,105.75,0)" xlink:href="#co"/></g><path fill="#3a414a" d="M177-190C167-65 218 103 67 71c-23-6-38-20-44-43l32-5c15 47 100 32 89-28v-30C133-14 115 1 83 1 29 1 15-40 15-95c0-56 16-97 71-98 29-1 48 16 59 35 1-10 0-23 2-32h30zM94-22c36 0 50-32 50-73 0-42-14-75-50-75-39 0-46 34-46 75s6 73 46 73" id="cB"/><g id="F"><use transform="matrix(0.06172839506172839,0,0,0.06172839506172839,0,0)" xlink:href="#cB"/><use transform="matrix(0.06172839506172839,0,0,0.06172839506172839,12.345679012345679,0)" xlink:href="#ai"/><use transform="matrix(0.06172839506172839,0,0,0.06172839506172839,24.691358024691358,0)" xlink:href="#an"/><use transform="matrix(0.06172839506172839,0,0,0.06172839506172839,30.864197530864196,0)" xlink:href="#aw"/><use transform="matrix(0.06172839506172839,0,0,0.06172839506172839,46.85185185185185,0)" xlink:href="#al"/><use transform="matrix(0.06172839506172839,0,0,0.06172839506172839,59.197530864197525,0)" xlink:href="#au"/><use transform="matrix(0.06172839506172839,0,0,0.06172839506172839,64.07407407407406,0)" xlink:href="#ai"/><use transform="matrix(0.06172839506172839,0,0,0.06172839506172839,76.41975308641975,0)" xlink:href="#aA"/><use transform="matrix(0.06172839506172839,0,0,0.06172839506172839,83.76543209876543,0)" xlink:href="#aD"/><use transform="matrix(0.06172839506172839,0,0,0.06172839506172839,91.11111111111111,0)" xlink:href="#ap"/><use transform="matrix(0.06172839506172839,0,0,0.06172839506172839,97.28395061728395,0)" xlink:href="#aw"/><use transform="matrix(0.06172839506172839,0,0,0.06172839506172839,113.27160493827161,0)" xlink:href="#al"/><use transform="matrix(0.06172839506172839,0,0,0.06172839506172839,125.61728395061729,0)" xlink:href="#au"/><use transform="matrix(0.06172839506172839,0,0,0.06172839506172839,130.49382716049382,0)" xlink:href="#ai"/></g><path fill="#3a414a" d="M190 0L58-211 59 0H30v-248h39L202-35l-2-213h31V0h-41" id="cC"/><path fill="#3a414a" d="M210-169c-67 3-38 105-44 169h-31v-121c0-29-5-50-35-48C34-165 62-65 56 0H25l-1-190h30c1 10-1 24 2 32 10-44 99-50 107 0 11-21 27-35 58-36 85-2 47 119 55 194h-31v-121c0-29-5-49-35-48" id="cD"/><g id="G"><use transform="matrix(0.06172839506172839,0,0,0.06172839506172839,0,0)" xlink:href="#cB"/><use transform="matrix(0.06172839506172839,0,0,0.06172839506172839,12.345679012345679,0)" xlink:href="#ai"/><use transform="matrix(0.06172839506172839,0,0,0.06172839506172839,24.691358024691358,0)" xlink:href="#an"/><use transform="matrix(0.06172839506172839,0,0,0.06172839506172839,30.864197530864196,0)" xlink:href="#cC"/><use transform="matrix(0.06172839506172839,0,0,0.06172839506172839,46.85185185185185,0)" xlink:href="#as"/><use transform="matrix(0.06172839506172839,0,0,0.06172839506172839,59.197530864197525,0)" xlink:href="#cD"/><use transform="matrix(0.06172839506172839,0,0,0.06172839506172839,77.65432098765432,0)" xlink:href="#ai"/><use transform="matrix(0.06172839506172839,0,0,0.06172839506172839,90,0)" xlink:href="#aA"/><use transform="matrix(0.06172839506172839,0,0,0.06172839506172839,97.34567901234568,0)" xlink:href="#aD"/><use transform="matrix(0.06172839506172839,0,0,0.06172839506172839,104.69135802469137,0)" xlink:href="#ap"/><use transform="matrix(0.06172839506172839,0,0,0.06172839506172839,110.8641975308642,0)" xlink:href="#cC"/><use transform="matrix(0.06172839506172839,0,0,0.06172839506172839,126.85185185185188,0)" xlink:href="#as"/><use transform="matrix(0.06172839506172839,0,0,0.06172839506172839,139.19753086419755,0)" xlink:href="#cD"/><use transform="matrix(0.06172839506172839,0,0,0.06172839506172839,157.65432098765433,0)" xlink:href="#ai"/></g><path d="M85 4C-2 5 27-109 22-190h50c7 57-23 150 33 157 60-5 35-97 40-157h50l1 190h-47c-2-12 1-28-3-38-12 25-28 42-61 42" id="cE"/><path d="M220-157c-53 9-28 100-34 157h-49v-107c1-27-5-49-29-50C55-147 81-57 75 0H25l-1-190h47c2 12-1 28 3 38 10-53 101-56 108 0 13-22 24-43 59-42 82 1 51 116 57 194h-49v-107c-1-25-5-48-29-50" id="cF"/><g id="H"><use transform="matrix(0.05,0,0,0.05,0,0)" xlink:href="#cl"/><use transform="matrix(0.05,0,0,0.05,10.5,0)" xlink:href="#cl"/><use transform="matrix(0.05,0,0,0.05,21,0)" xlink:href="#cp"/><use transform="matrix(0.05,0,0,0.05,31,0)" xlink:href="#cn"/><use transform="matrix(0.05,0,0,0.05,41.95,0)" xlink:href="#cE"/><use transform="matrix(0.05,0,0,0.05,52.900000000000006,0)" xlink:href="#cF"/><use transform="matrix(0.05,0,0,0.05,68.9,0)" xlink:href="#cu"/><use transform="matrix(0.05,0,0,0.05,79.4,0)" xlink:href="#cu"/></g><path d="M240-174c0 40-23 61-54 70L253 0h-59l-57-94H76V0H24v-248c93 4 217-23 216 74zM76-134c48-2 112 12 112-38 0-48-66-32-112-35v73" id="cG"/><path d="M25 0v-261h50V0H25" id="cH"/><g id="I"><use transform="matrix(0.05,0,0,0.05,0,0)" xlink:href="#cG"/><use transform="matrix(0.05,0,0,0.05,12.950000000000001,0)" xlink:href="#cz"/><use transform="matrix(0.05,0,0,0.05,23.900000000000002,0)" xlink:href="#cH"/><use transform="matrix(0.05,0,0,0.05,28.900000000000002,0)" xlink:href="#cp"/></g><g id="J"><use transform="matrix(0.06172839506172839,0,0,0.06172839506172839,0,0)" xlink:href="#as"/><use transform="matrix(0.06172839506172839,0,0,0.06172839506172839,12.345679012345679,0)" xlink:href="#aB"/><use transform="matrix(0.06172839506172839,0,0,0.06172839506172839,24.691358024691358,0)" xlink:href="#cD"/><use transform="matrix(0.06172839506172839,0,0,0.06172839506172839,43.148148148148145,0)" xlink:href="#aF"/><use transform="matrix(0.06172839506172839,0,0,0.06172839506172839,48.02469135802469,0)" xlink:href="#am"/></g><g id="K"><use transform="matrix(0.06172839506172839,0,0,0.06172839506172839,0,0)" xlink:href="#ag"/><use transform="matrix(0.06172839506172839,0,0,0.06172839506172839,12.345679012345679,0)" xlink:href="#ah"/><use transform="matrix(0.06172839506172839,0,0,0.06172839506172839,23.45679012345679,0)" xlink:href="#ai"/><use transform="matrix(0.06172839506172839,0,0,0.06172839506172839,35.80246913580247,0)" xlink:href="#aj"/></g><g id="L"><use transform="matrix(0.06172839506172839,0,0,0.06172839506172839,0,0)" xlink:href="#az"/><use transform="matrix(0.06172839506172839,0,0,0.06172839506172839,11.11111111111111,0)" xlink:href="#au"/><use transform="matrix(0.06172839506172839,0,0,0.06172839506172839,15.987654320987653,0)" xlink:href="#aF"/><use transform="matrix(0.06172839506172839,0,0,0.06172839506172839,20.864197530864196,0)" xlink:href="#ai"/><use transform="matrix(0.06172839506172839,0,0,0.06172839506172839,33.20987654320987,0)" xlink:href="#am"/><use transform="matrix(0.06172839506172839,0,0,0.06172839506172839,45.55555555555555,0)" xlink:href="#an"/></g><path fill="#333" d="M23 0v-37h61v-169l-59 37v-38l62-41h46v211h57V0H23" id="cI"/><use transform="matrix(0.04938271604938272,0,0,0.04938271604938272,0,0)" xlink:href="#cI" id="M"/><path fill="#3a414a" d="M238-95c0 69-44 99-111 99C63 4 22-25 22-93v-155h51v151c-1 38 19 59 55 60 90 1 49-130 58-211h52v153" id="cJ"/><path fill="#3a414a" d="M137-138c1-29-70-34-71-4 15 46 118 7 119 86 1 83-164 76-172 9l43-7c4 19 20 25 44 25 33 8 57-30 24-41C81-84 22-81 20-136c-2-80 154-74 161-7" id="cK"/><path fill="#3a414a" d="M67-125c0 53 21 87 73 88 37 1 54-22 65-47l45 17C233-25 199 4 140 4 58 4 20-42 15-125 8-235 124-281 211-232c18 10 29 29 36 50l-46 12c-8-25-30-41-62-41-52 0-71 34-72 86" id="cL"/><path fill="#3a414a" d="M88-194c31-1 46 15 58 34l-1-101h50l1 261h-48c-2-10 0-23-3-31C134-8 116 4 84 4 32 4 16-41 15-95c0-56 19-97 73-99zm17 164c33 0 40-30 41-66 1-37-9-64-41-64s-38 30-39 65c0 43 13 65 39 65" id="cM"/><path fill="#3a414a" d="M135-194c87-1 58 113 63 194h-50c-7-57 23-157-34-157-59 0-34 97-39 157H25l-1-190h47c2 12-1 28 3 38 12-26 28-41 61-42" id="cN"/><path fill="#3a414a" d="M25 0v-261h50V0H25" id="cO"/><g id="N"><use transform="matrix(0.06172839506172839,0,0,0.06172839506172839,0,0)" xlink:href="#cJ"/><use transform="matrix(0.06172839506172839,0,0,0.06172839506172839,15.987654320987653,0)" xlink:href="#cK"/><use transform="matrix(0.06172839506172839,0,0,0.06172839506172839,28.333333333333332,0)" xlink:href="#R"/><use transform="matrix(0.06172839506172839,0,0,0.06172839506172839,40.67901234567901,0)" xlink:href="#U"/><use transform="matrix(0.06172839506172839,0,0,0.06172839506172839,49.32098765432099,0)" xlink:href="#cL"/><use transform="matrix(0.06172839506172839,0,0,0.06172839506172839,65.30864197530865,0)" xlink:href="#U"/><use transform="matrix(0.06172839506172839,0,0,0.06172839506172839,73.95061728395062,0)" xlink:href="#R"/><use transform="matrix(0.06172839506172839,0,0,0.06172839506172839,86.2962962962963,0)" xlink:href="#cM"/><use transform="matrix(0.06172839506172839,0,0,0.06172839506172839,99.81481481481482,0)" xlink:href="#R"/><use transform="matrix(0.06172839506172839,0,0,0.06172839506172839,112.16049382716051,0)" xlink:href="#cN"/><use transform="matrix(0.06172839506172839,0,0,0.06172839506172839,125.67901234567903,0)" xlink:href="#W"/><use transform="matrix(0.06172839506172839,0,0,0.06172839506172839,133.0246913580247,0)" xlink:href="#V"/><use transform="matrix(0.06172839506172839,0,0,0.06172839506172839,139.19753086419755,0)" xlink:href="#aa"/><use transform="matrix(0.06172839506172839,0,0,0.06172839506172839,151.54320987654322,0)" xlink:href="#cO"/></g><g id="O"><use transform="matrix(0.06172839506172839,0,0,0.06172839506172839,0,0)" xlink:href="#aj"/><use transform="matrix(0.06172839506172839,0,0,0.06172839506172839,7.345679012345679,0)" xlink:href="#al"/><use transform="matrix(0.06172839506172839,0,0,0.06172839506172839,19.691358024691358,0)" xlink:href="#au"/><use transform="matrix(0.06172839506172839,0,0,0.06172839506172839,24.5679012345679,0)" xlink:href="#ai"/><use transform="matrix(0.06172839506172839,0,0,0.06172839506172839,36.913580246913575,0)" xlink:href="#ap"/><use transform="matrix(0.06172839506172839,0,0,0.06172839506172839,43.08641975308642,0)" xlink:href="#aw"/><use transform="matrix(0.06172839506172839,0,0,0.06172839506172839,59.07407407407407,0)" xlink:href="#al"/><use transform="matrix(0.06172839506172839,0,0,0.06172839506172839,71.41975308641975,0)" xlink:href="#au"/><use transform="matrix(0.06172839506172839,0,0,0.06172839506172839,76.29629629629629,0)" xlink:href="#ai"/></g><path fill="#333" d="M25-224v-37h50v37H25zM25 0v-190h50V0H25" id="cP"/><path fill="#333" d="M220-157c-53 9-28 100-34 157h-49v-107c1-27-5-49-29-50C55-147 81-57 75 0H25l-1-190h47c2 12-1 28 3 38 10-53 101-56 108 0 13-22 24-43 59-42 82 1 51 116 57 194h-49v-107c-1-25-5-48-29-50" id="cQ"/><path fill="#333" d="M135-194c53 0 70 44 70 98 0 56-19 98-73 100-31 1-45-17-59-34 3 33 2 69 2 105H25l-1-265h48c2 10 0 23 3 31 11-24 29-35 60-35zM114-30c33 0 39-31 40-66 0-38-9-64-40-64-56 0-55 130 0 130" id="cR"/><path fill="#333" d="M25 0v-261h50V0H25" id="cS"/><path fill="#333" d="M185-48c-13 30-37 53-82 52C43 2 14-33 14-96s30-98 90-98c62 0 83 45 84 108H66c0 31 8 55 39 56 18 0 30-7 34-22zm-45-69c5-46-57-63-70-21-2 6-4 13-4 21h74" id="cT"/><path fill="#333" d="M135-194c87-1 58 113 63 194h-50c-7-57 23-157-34-157-59 0-34 97-39 157H25l-1-190h47c2 12-1 28 3 38 12-26 28-41 61-42" id="cU"/><path fill="#333" d="M115-3C79 11 28 4 28-45v-112H4v-33h27l15-45h31v45h36v33H77v99c-1 23 16 31 38 25v30" id="cV"/><path fill="#333" d="M137-138c1-29-70-34-71-4 15 46 118 7 119 86 1 83-164 76-172 9l43-7c4 19 20 25 44 25 33 8 57-30 24-41C81-84 22-81 20-136c-2-80 154-74 161-7" id="cW"/><g id="P"><use transform="matrix(0.04938271604938272,0,0,0.04938271604938272,0,0)" xlink:href="#cP"/><use transform="matrix(0.04938271604938272,0,0,0.04938271604938272,4.938271604938272,0)" xlink:href="#cQ"/><use transform="matrix(0.04938271604938272,0,0,0.04938271604938272,20.74074074074074,0)" xlink:href="#cR"/><use transform="matrix(0.04938271604938272,0,0,0.04938271604938272,31.555555555555557,0)" xlink:href="#cS"/><use transform="matrix(0.04938271604938272,0,0,0.04938271604938272,36.49382716049383,0)" xlink:href="#cT"/><use transform="matrix(0.04938271604938272,0,0,0.04938271604938272,46.370370370370374,0)" xlink:href="#cQ"/><use transform="matrix(0.04938271604938272,0,0,0.04938271604938272,62.17283950617284,0)" xlink:href="#cT"/><use transform="matrix(0.04938271604938272,0,0,0.04938271604938272,72.0493827160494,0)" xlink:href="#cU"/><use transform="matrix(0.04938271604938272,0,0,0.04938271604938272,82.8641975308642,0)" xlink:href="#cV"/><use transform="matrix(0.04938271604938272,0,0,0.04938271604938272,88.74074074074075,0)" xlink:href="#cW"/></g></defs></g></svg>